<mxfile host="app.diagrams.net" agent="Mozilla/5.0 (Windows NT 10.0; Win64; x64) AppleWebKit/537.36 (KHTML, like Gecko) Chrome/135.0.0.0 Safari/537.36" version="26.2.14">
  <diagram name="Page-1" id="f80hZIIOVowSLjkfoBHC">
    <mxGraphModel dx="3255" dy="1864" grid="1" gridSize="10" guides="1" tooltips="1" connect="1" arrows="1" fold="1" page="1" pageScale="1" pageWidth="850" pageHeight="1100" math="0" shadow="0">
      <root>
        <mxCell id="0" />
        <mxCell id="1" parent="0" />
        <mxCell id="k9o-K-0dyuXf7gm_a3Xe-1" value="" style="shape=umlLifeline;perimeter=lifelinePerimeter;whiteSpace=wrap;html=1;container=1;dropTarget=0;collapsible=0;recursiveResize=0;outlineConnect=0;portConstraint=eastwest;newEdgeStyle={&quot;curved&quot;:0,&quot;rounded&quot;:0};participant=umlActor;" vertex="1" parent="1">
          <mxGeometry x="-830" y="-40" width="30" height="1720" as="geometry" />
        </mxCell>
        <mxCell id="k9o-K-0dyuXf7gm_a3Xe-2" value="Committe" style="text;html=1;align=center;verticalAlign=middle;resizable=0;points=[];autosize=1;strokeColor=none;fillColor=none;fontSize=14;fontStyle=1" vertex="1" parent="1">
          <mxGeometry x="-855" y="-80" width="80" height="30" as="geometry" />
        </mxCell>
        <mxCell id="k9o-K-0dyuXf7gm_a3Xe-3" value="committee-homepage" style="shape=umlLifeline;perimeter=lifelinePerimeter;whiteSpace=wrap;html=1;container=1;dropTarget=0;collapsible=0;recursiveResize=0;outlineConnect=0;portConstraint=eastwest;newEdgeStyle={&quot;curved&quot;:0,&quot;rounded&quot;:0};fontSize=14;fontStyle=1" vertex="1" parent="1">
          <mxGeometry x="-720" y="-40" width="160" height="1720" as="geometry" />
        </mxCell>
        <mxCell id="k9o-K-0dyuXf7gm_a3Xe-4" value="" style="html=1;points=[[0,0,0,0,5],[0,1,0,0,-5],[1,0,0,0,5],[1,1,0,0,-5]];perimeter=orthogonalPerimeter;outlineConnect=0;targetShapes=umlLifeline;portConstraint=eastwest;newEdgeStyle={&quot;curved&quot;:0,&quot;rounded&quot;:0};strokeColor=#000000;fillColor=#dae8fc;" vertex="1" parent="k9o-K-0dyuXf7gm_a3Xe-3">
          <mxGeometry x="75" y="70" width="10" height="70" as="geometry" />
        </mxCell>
        <mxCell id="k9o-K-0dyuXf7gm_a3Xe-5" value="CommitteeController" style="shape=umlLifeline;perimeter=lifelinePerimeter;whiteSpace=wrap;html=1;container=1;dropTarget=0;collapsible=0;recursiveResize=0;outlineConnect=0;portConstraint=eastwest;newEdgeStyle={&quot;curved&quot;:0,&quot;rounded&quot;:0};fontSize=14;fontStyle=1" vertex="1" parent="1">
          <mxGeometry x="-520" y="-40" width="160" height="1720" as="geometry" />
        </mxCell>
        <mxCell id="k9o-K-0dyuXf7gm_a3Xe-6" value="" style="html=1;points=[[0,0,0,0,5],[0,1,0,0,-5],[1,0,0,0,5],[1,1,0,0,-5]];perimeter=orthogonalPerimeter;outlineConnect=0;targetShapes=umlLifeline;portConstraint=eastwest;newEdgeStyle={&quot;curved&quot;:0,&quot;rounded&quot;:0};strokeColor=#000000;fillColor=#dae8fc;" vertex="1" parent="k9o-K-0dyuXf7gm_a3Xe-5">
          <mxGeometry x="75" y="80" width="10" height="100" as="geometry" />
        </mxCell>
        <mxCell id="k9o-K-0dyuXf7gm_a3Xe-68" value="" style="html=1;points=[[0,0,0,0,5],[0,1,0,0,-5],[1,0,0,0,5],[1,1,0,0,-5]];perimeter=orthogonalPerimeter;outlineConnect=0;targetShapes=umlLifeline;portConstraint=eastwest;newEdgeStyle={&quot;curved&quot;:0,&quot;rounded&quot;:0};strokeColor=#000000;fillColor=#dae8fc;" vertex="1" parent="k9o-K-0dyuXf7gm_a3Xe-5">
          <mxGeometry x="75" y="1170" width="10" height="60" as="geometry" />
        </mxCell>
        <mxCell id="k9o-K-0dyuXf7gm_a3Xe-91" value="" style="html=1;points=[[0,0,0,0,5],[0,1,0,0,-5],[1,0,0,0,5],[1,1,0,0,-5]];perimeter=orthogonalPerimeter;outlineConnect=0;targetShapes=umlLifeline;portConstraint=eastwest;newEdgeStyle={&quot;curved&quot;:0,&quot;rounded&quot;:0};strokeColor=#000000;fillColor=#dae8fc;" vertex="1" parent="k9o-K-0dyuXf7gm_a3Xe-5">
          <mxGeometry x="75" y="1470" width="10" height="60" as="geometry" />
        </mxCell>
        <mxCell id="k9o-K-0dyuXf7gm_a3Xe-8" value="Selects Student &amp;amp;&amp;nbsp;&lt;div&gt;click &quot;View Progress&quot;&lt;/div&gt;" style="text;html=1;align=center;verticalAlign=middle;resizable=0;points=[];autosize=1;strokeColor=none;fillColor=none;fontSize=13;fontStyle=2" vertex="1" parent="1">
          <mxGeometry x="-805" y="20" width="150" height="40" as="geometry" />
        </mxCell>
        <mxCell id="k9o-K-0dyuXf7gm_a3Xe-9" value="" style="endArrow=classic;html=1;rounded=0;" edge="1" parent="1">
          <mxGeometry width="50" height="50" relative="1" as="geometry">
            <mxPoint x="-815.5" y="56" as="sourcePoint" />
            <mxPoint x="-645" y="56" as="targetPoint" />
          </mxGeometry>
        </mxCell>
        <mxCell id="k9o-K-0dyuXf7gm_a3Xe-10" value="viewProgress()" style="text;html=1;align=center;verticalAlign=middle;resizable=0;points=[];autosize=1;strokeColor=none;fillColor=none;fontSize=13;fontStyle=2" vertex="1" parent="1">
          <mxGeometry x="-605" y="50" width="110" height="30" as="geometry" />
        </mxCell>
        <mxCell id="k9o-K-0dyuXf7gm_a3Xe-11" value="" style="endArrow=classic;html=1;rounded=0;" edge="1" parent="1">
          <mxGeometry width="50" height="50" relative="1" as="geometry">
            <mxPoint x="-635" y="75" as="sourcePoint" />
            <mxPoint x="-440.5" y="75" as="targetPoint" />
          </mxGeometry>
        </mxCell>
        <mxCell id="k9o-K-0dyuXf7gm_a3Xe-12" value="TraineeshipPositionService" style="shape=umlLifeline;perimeter=lifelinePerimeter;whiteSpace=wrap;html=1;container=1;dropTarget=0;collapsible=0;recursiveResize=0;outlineConnect=0;portConstraint=eastwest;newEdgeStyle={&quot;curved&quot;:0,&quot;rounded&quot;:0};fontSize=14;fontStyle=1" vertex="1" parent="1">
          <mxGeometry x="-320" y="-40" width="200" height="1720" as="geometry" />
        </mxCell>
        <mxCell id="k9o-K-0dyuXf7gm_a3Xe-13" value="" style="html=1;points=[[0,0,0,0,5],[0,1,0,0,-5],[1,0,0,0,5],[1,1,0,0,-5]];perimeter=orthogonalPerimeter;outlineConnect=0;targetShapes=umlLifeline;portConstraint=eastwest;newEdgeStyle={&quot;curved&quot;:0,&quot;rounded&quot;:0};strokeColor=#000000;fillColor=#dae8fc;" vertex="1" parent="k9o-K-0dyuXf7gm_a3Xe-12">
          <mxGeometry x="92.5" y="140" width="10" height="70" as="geometry" />
        </mxCell>
        <mxCell id="k9o-K-0dyuXf7gm_a3Xe-14" value="" style="html=1;points=[[0,0,0,0,5],[0,1,0,0,-5],[1,0,0,0,5],[1,1,0,0,-5]];perimeter=orthogonalPerimeter;outlineConnect=0;targetShapes=umlLifeline;portConstraint=eastwest;newEdgeStyle={&quot;curved&quot;:0,&quot;rounded&quot;:0};strokeColor=#000000;fillColor=#dae8fc;" vertex="1" parent="k9o-K-0dyuXf7gm_a3Xe-12">
          <mxGeometry x="95" y="260" width="10" height="160" as="geometry" />
        </mxCell>
        <mxCell id="k9o-K-0dyuXf7gm_a3Xe-71" value="" style="html=1;points=[[0,0,0,0,5],[0,1,0,0,-5],[1,0,0,0,5],[1,1,0,0,-5]];perimeter=orthogonalPerimeter;outlineConnect=0;targetShapes=umlLifeline;portConstraint=eastwest;newEdgeStyle={&quot;curved&quot;:0,&quot;rounded&quot;:0};strokeColor=#000000;fillColor=#dae8fc;" vertex="1" parent="k9o-K-0dyuXf7gm_a3Xe-12">
          <mxGeometry x="92.5" y="1180" width="10" height="230" as="geometry" />
        </mxCell>
        <mxCell id="k9o-K-0dyuXf7gm_a3Xe-17" value="getPositionById()" style="text;html=1;align=center;verticalAlign=middle;resizable=0;points=[];autosize=1;strokeColor=none;fillColor=none;fontSize=13;fontStyle=2" vertex="1" parent="1">
          <mxGeometry x="-390" y="90" width="120" height="30" as="geometry" />
        </mxCell>
        <mxCell id="k9o-K-0dyuXf7gm_a3Xe-18" value="" style="endArrow=classic;html=1;rounded=0;" edge="1" parent="1">
          <mxGeometry width="50" height="50" relative="1" as="geometry">
            <mxPoint x="-440.4523809523812" y="117" as="sourcePoint" />
            <mxPoint x="-227.5" y="117" as="targetPoint" />
          </mxGeometry>
        </mxCell>
        <mxCell id="k9o-K-0dyuXf7gm_a3Xe-24" value="TraineeshipDAORepository" style="shape=umlLifeline;perimeter=lifelinePerimeter;whiteSpace=wrap;html=1;container=1;dropTarget=0;collapsible=0;recursiveResize=0;outlineConnect=0;portConstraint=eastwest;newEdgeStyle={&quot;curved&quot;:0,&quot;rounded&quot;:0};fontSize=14;fontStyle=1" vertex="1" parent="1">
          <mxGeometry x="200" y="-40" width="200" height="1720" as="geometry" />
        </mxCell>
        <mxCell id="k9o-K-0dyuXf7gm_a3Xe-25" value="" style="html=1;points=[[0,0,0,0,5],[0,1,0,0,-5],[1,0,0,0,5],[1,1,0,0,-5]];perimeter=orthogonalPerimeter;outlineConnect=0;targetShapes=umlLifeline;portConstraint=eastwest;newEdgeStyle={&quot;curved&quot;:0,&quot;rounded&quot;:0};strokeColor=#000000;fillColor=#dae8fc;" vertex="1" parent="k9o-K-0dyuXf7gm_a3Xe-24">
          <mxGeometry x="95" y="150" width="10" height="160" as="geometry" />
        </mxCell>
        <mxCell id="k9o-K-0dyuXf7gm_a3Xe-80" value="" style="html=1;points=[[0,0,0,0,5],[0,1,0,0,-5],[1,0,0,0,5],[1,1,0,0,-5]];perimeter=orthogonalPerimeter;outlineConnect=0;targetShapes=umlLifeline;portConstraint=eastwest;newEdgeStyle={&quot;curved&quot;:0,&quot;rounded&quot;:0};strokeColor=#000000;fillColor=#dae8fc;" vertex="1" parent="k9o-K-0dyuXf7gm_a3Xe-24">
          <mxGeometry x="95" y="1200" width="10" height="130" as="geometry" />
        </mxCell>
        <mxCell id="k9o-K-0dyuXf7gm_a3Xe-84" value="" style="html=1;points=[[0,0,0,0,5],[0,1,0,0,-5],[1,0,0,0,5],[1,1,0,0,-5]];perimeter=orthogonalPerimeter;outlineConnect=0;targetShapes=umlLifeline;portConstraint=eastwest;newEdgeStyle={&quot;curved&quot;:0,&quot;rounded&quot;:0};strokeColor=#000000;fillColor=#dae8fc;" vertex="1" parent="k9o-K-0dyuXf7gm_a3Xe-24">
          <mxGeometry x="95" y="1400" width="10" height="90" as="geometry" />
        </mxCell>
        <mxCell id="k9o-K-0dyuXf7gm_a3Xe-26" value="findById()" style="text;html=1;align=center;verticalAlign=middle;resizable=0;points=[];autosize=1;strokeColor=none;fillColor=none;fontSize=13;fontStyle=2" vertex="1" parent="1">
          <mxGeometry x="-180" y="120" width="80" height="30" as="geometry" />
        </mxCell>
        <mxCell id="k9o-K-0dyuXf7gm_a3Xe-27" value="" style="endArrow=classic;html=1;rounded=0;" edge="1" parent="1" target="k9o-K-0dyuXf7gm_a3Xe-24">
          <mxGeometry width="50" height="50" relative="1" as="geometry">
            <mxPoint x="-221.16666666666652" y="147" as="sourcePoint" />
            <mxPoint x="280" y="147" as="targetPoint" />
          </mxGeometry>
        </mxCell>
        <mxCell id="k9o-K-0dyuXf7gm_a3Xe-28" value="Database (MySQL)" style="shape=umlLifeline;perimeter=lifelinePerimeter;whiteSpace=wrap;html=1;container=1;dropTarget=0;collapsible=0;recursiveResize=0;outlineConnect=0;portConstraint=eastwest;newEdgeStyle={&quot;curved&quot;:0,&quot;rounded&quot;:0};fontSize=14;fontStyle=1" vertex="1" parent="1">
          <mxGeometry x="440" y="-40" width="100" height="1710" as="geometry" />
        </mxCell>
        <mxCell id="k9o-K-0dyuXf7gm_a3Xe-29" value="" style="html=1;points=[[0,0,0,0,5],[0,1,0,0,-5],[1,0,0,0,5],[1,1,0,0,-5]];perimeter=orthogonalPerimeter;outlineConnect=0;targetShapes=umlLifeline;portConstraint=eastwest;newEdgeStyle={&quot;curved&quot;:0,&quot;rounded&quot;:0};strokeColor=#000000;fillColor=#dae8fc;" vertex="1" parent="k9o-K-0dyuXf7gm_a3Xe-28">
          <mxGeometry x="45" y="170" width="10" height="90" as="geometry" />
        </mxCell>
        <mxCell id="k9o-K-0dyuXf7gm_a3Xe-87" value="" style="html=1;points=[[0,0,0,0,5],[0,1,0,0,-5],[1,0,0,0,5],[1,1,0,0,-5]];perimeter=orthogonalPerimeter;outlineConnect=0;targetShapes=umlLifeline;portConstraint=eastwest;newEdgeStyle={&quot;curved&quot;:0,&quot;rounded&quot;:0};strokeColor=#000000;fillColor=#dae8fc;" vertex="1" parent="k9o-K-0dyuXf7gm_a3Xe-28">
          <mxGeometry x="45" y="1438" width="10" height="52" as="geometry" />
        </mxCell>
        <mxCell id="k9o-K-0dyuXf7gm_a3Xe-30" value="find Position" style="text;html=1;align=center;verticalAlign=middle;resizable=0;points=[];autosize=1;strokeColor=none;fillColor=none;fontSize=13;fontStyle=2" vertex="1" parent="1">
          <mxGeometry x="350" y="148" width="90" height="30" as="geometry" />
        </mxCell>
        <mxCell id="k9o-K-0dyuXf7gm_a3Xe-31" value="return Position" style="html=1;verticalAlign=bottom;endArrow=open;dashed=1;endSize=8;curved=0;rounded=0;fontSize=13;fontStyle=2;exitX=0;exitY=1;exitDx=0;exitDy=-5;exitPerimeter=0;" edge="1" parent="1" source="k9o-K-0dyuXf7gm_a3Xe-29" target="k9o-K-0dyuXf7gm_a3Xe-25">
          <mxGeometry x="-0.0026" relative="1" as="geometry">
            <mxPoint x="478" y="190" as="sourcePoint" />
            <mxPoint x="312" y="190" as="targetPoint" />
            <mxPoint as="offset" />
          </mxGeometry>
        </mxCell>
        <mxCell id="k9o-K-0dyuXf7gm_a3Xe-32" value="return Position" style="html=1;verticalAlign=bottom;endArrow=open;dashed=1;endSize=8;curved=0;rounded=0;fontSize=13;fontStyle=2;" edge="1" parent="1">
          <mxGeometry x="-0.0026" relative="1" as="geometry">
            <mxPoint x="299.49999999999955" y="240" as="sourcePoint" />
            <mxPoint x="-215" y="240" as="targetPoint" />
            <mxPoint as="offset" />
          </mxGeometry>
        </mxCell>
        <mxCell id="k9o-K-0dyuXf7gm_a3Xe-33" value="" style="endArrow=classic;html=1;rounded=0;" edge="1" parent="1" target="k9o-K-0dyuXf7gm_a3Xe-41">
          <mxGeometry width="50" height="50" relative="1" as="geometry">
            <mxPoint x="-215" y="284" as="sourcePoint" />
            <mxPoint x="659.4999999999995" y="284" as="targetPoint" />
          </mxGeometry>
        </mxCell>
        <mxCell id="k9o-K-0dyuXf7gm_a3Xe-34" value="getStudent()" style="text;html=1;align=center;verticalAlign=middle;resizable=0;points=[];autosize=1;strokeColor=none;fillColor=none;fontSize=13;fontStyle=2" vertex="1" parent="1">
          <mxGeometry x="-170" y="248" width="100" height="30" as="geometry" />
        </mxCell>
        <mxCell id="k9o-K-0dyuXf7gm_a3Xe-35" value="return Student" style="html=1;verticalAlign=bottom;endArrow=open;dashed=1;endSize=8;curved=0;rounded=0;fontSize=13;fontStyle=2;" edge="1" parent="1">
          <mxGeometry x="-0.0026" relative="1" as="geometry">
            <mxPoint x="654.4999999999995" y="320" as="sourcePoint" />
            <mxPoint x="-215" y="320" as="targetPoint" />
            <mxPoint as="offset" />
          </mxGeometry>
        </mxCell>
        <mxCell id="k9o-K-0dyuXf7gm_a3Xe-36" value="&quot;call&quot;" style="text;html=1;align=center;verticalAlign=middle;resizable=0;points=[];autosize=1;strokeColor=none;fillColor=none;fontSize=13;fontStyle=2" vertex="1" parent="1">
          <mxGeometry x="-170" y="340" width="50" height="30" as="geometry" />
        </mxCell>
        <mxCell id="k9o-K-0dyuXf7gm_a3Xe-37" value="" style="endArrow=classic;html=1;rounded=0;" edge="1" parent="1">
          <mxGeometry width="50" height="50" relative="1" as="geometry">
            <mxPoint x="-215" y="370" as="sourcePoint" />
            <mxPoint x="-30.5" y="370" as="targetPoint" />
          </mxGeometry>
        </mxCell>
        <mxCell id="k9o-K-0dyuXf7gm_a3Xe-38" value="" style="endArrow=classic;html=1;rounded=0;" edge="1" parent="1">
          <mxGeometry width="50" height="50" relative="1" as="geometry">
            <mxPoint x="300" y="170" as="sourcePoint" />
            <mxPoint x="485" y="170" as="targetPoint" />
          </mxGeometry>
        </mxCell>
        <mxCell id="k9o-K-0dyuXf7gm_a3Xe-39" value="" style="endArrow=classic;html=1;rounded=0;" edge="1" parent="1">
          <mxGeometry width="50" height="50" relative="1" as="geometry">
            <mxPoint x="300" y="170" as="sourcePoint" />
            <mxPoint x="485" y="170" as="targetPoint" />
          </mxGeometry>
        </mxCell>
        <mxCell id="k9o-K-0dyuXf7gm_a3Xe-40" value="TraineeshipPosition" style="shape=umlLifeline;perimeter=lifelinePerimeter;whiteSpace=wrap;html=1;container=1;dropTarget=0;collapsible=0;recursiveResize=0;outlineConnect=0;portConstraint=eastwest;newEdgeStyle={&quot;curved&quot;:0,&quot;rounded&quot;:0};fontSize=14;fontStyle=1" vertex="1" parent="1">
          <mxGeometry x="560" y="-40" width="200" height="1720" as="geometry" />
        </mxCell>
        <mxCell id="k9o-K-0dyuXf7gm_a3Xe-41" value="" style="html=1;points=[[0,0,0,0,5],[0,1,0,0,-5],[1,0,0,0,5],[1,1,0,0,-5]];perimeter=orthogonalPerimeter;outlineConnect=0;targetShapes=umlLifeline;portConstraint=eastwest;newEdgeStyle={&quot;curved&quot;:0,&quot;rounded&quot;:0};strokeColor=#000000;fillColor=#dae8fc;" vertex="1" parent="k9o-K-0dyuXf7gm_a3Xe-40">
          <mxGeometry x="92.5" y="300" width="10" height="80" as="geometry" />
        </mxCell>
        <mxCell id="k9o-K-0dyuXf7gm_a3Xe-82" value="" style="html=1;points=[[0,0,0,0,5],[0,1,0,0,-5],[1,0,0,0,5],[1,1,0,0,-5]];perimeter=orthogonalPerimeter;outlineConnect=0;targetShapes=umlLifeline;portConstraint=eastwest;newEdgeStyle={&quot;curved&quot;:0,&quot;rounded&quot;:0};strokeColor=#000000;fillColor=#dae8fc;" vertex="1" parent="k9o-K-0dyuXf7gm_a3Xe-40">
          <mxGeometry x="95" y="1348" width="10" height="90" as="geometry" />
        </mxCell>
        <mxCell id="k9o-K-0dyuXf7gm_a3Xe-42" value="ViewProgress" style="shape=umlLifeline;perimeter=lifelinePerimeter;whiteSpace=wrap;html=1;container=1;dropTarget=0;collapsible=0;recursiveResize=0;outlineConnect=0;portConstraint=eastwest;newEdgeStyle={&quot;curved&quot;:0,&quot;rounded&quot;:0};fontSize=14;fontStyle=1" vertex="1" parent="1">
          <mxGeometry x="-80" y="-40" width="100" height="1710" as="geometry" />
        </mxCell>
        <mxCell id="k9o-K-0dyuXf7gm_a3Xe-43" value="" style="html=1;points=[[0,0,0,0,5],[0,1,0,0,-5],[1,0,0,0,5],[1,1,0,0,-5]];perimeter=orthogonalPerimeter;outlineConnect=0;targetShapes=umlLifeline;portConstraint=eastwest;newEdgeStyle={&quot;curved&quot;:0,&quot;rounded&quot;:0};strokeColor=#000000;fillColor=#dae8fc;" vertex="1" parent="k9o-K-0dyuXf7gm_a3Xe-42">
          <mxGeometry x="45" y="390" width="10" height="170" as="geometry" />
        </mxCell>
        <mxCell id="k9o-K-0dyuXf7gm_a3Xe-45" value="" style="endArrow=classic;html=1;rounded=0;" edge="1" parent="1">
          <mxGeometry width="50" height="50" relative="1" as="geometry">
            <mxPoint x="-815" y="450" as="sourcePoint" />
            <mxPoint x="-35.5" y="450" as="targetPoint" />
          </mxGeometry>
        </mxCell>
        <mxCell id="k9o-K-0dyuXf7gm_a3Xe-46" value="Select &quot;Pass or Fail&quot; &amp;amp;&amp;nbsp;&lt;div&gt;click &quot;Complete&quot;&lt;/div&gt;" style="text;html=1;align=center;verticalAlign=middle;resizable=0;points=[];autosize=1;strokeColor=none;fillColor=none;fontSize=13;fontStyle=2" vertex="1" parent="1">
          <mxGeometry x="-815" y="405" width="160" height="40" as="geometry" />
        </mxCell>
        <mxCell id="k9o-K-0dyuXf7gm_a3Xe-47" value="alt" style="shape=umlFrame;whiteSpace=wrap;html=1;pointerEvents=0;" vertex="1" parent="1">
          <mxGeometry x="-920" y="400" width="1070" height="690" as="geometry" />
        </mxCell>
        <mxCell id="k9o-K-0dyuXf7gm_a3Xe-49" value="Complete Position" style="text;html=1;align=center;verticalAlign=middle;resizable=0;points=[];autosize=1;strokeColor=#666666;fillColor=#f5f5f5;fontSize=14;fontStyle=2;fontColor=#333333;" vertex="1" parent="1">
          <mxGeometry x="-195" y="410" width="140" height="30" as="geometry" />
        </mxCell>
        <mxCell id="k9o-K-0dyuXf7gm_a3Xe-50" value="completeTraineeship()" style="text;html=1;align=center;verticalAlign=middle;resizable=0;points=[];autosize=1;strokeColor=none;fillColor=none;fontSize=13;fontStyle=2" vertex="1" parent="1">
          <mxGeometry x="-200" y="468" width="150" height="30" as="geometry" />
        </mxCell>
        <mxCell id="k9o-K-0dyuXf7gm_a3Xe-51" value="" style="html=1;points=[[0,0,0,0,5],[0,1,0,0,-5],[1,0,0,0,5],[1,1,0,0,-5]];perimeter=orthogonalPerimeter;outlineConnect=0;targetShapes=umlLifeline;portConstraint=eastwest;newEdgeStyle={&quot;curved&quot;:0,&quot;rounded&quot;:0};strokeColor=#000000;fillColor=#dae8fc;" vertex="1" parent="1">
          <mxGeometry x="-645" y="460" width="10" height="60" as="geometry" />
        </mxCell>
        <mxCell id="k9o-K-0dyuXf7gm_a3Xe-52" value="" style="endArrow=classic;html=1;rounded=0;" edge="1" parent="1">
          <mxGeometry width="50" height="50" relative="1" as="geometry">
            <mxPoint x="-35" y="494" as="sourcePoint" />
            <mxPoint x="-635" y="494" as="targetPoint" />
          </mxGeometry>
        </mxCell>
        <mxCell id="k9o-K-0dyuXf7gm_a3Xe-53" value="No Evaluation from Professor" style="text;html=1;align=center;verticalAlign=middle;resizable=0;points=[];autosize=1;strokeColor=#666666;fillColor=#f5f5f5;fontSize=14;fontStyle=2;fontColor=#333333;" vertex="1" parent="1">
          <mxGeometry x="-225" y="570" width="210" height="30" as="geometry" />
        </mxCell>
        <mxCell id="k9o-K-0dyuXf7gm_a3Xe-54" value="No Evaluation from Company" style="text;html=1;align=center;verticalAlign=middle;resizable=0;points=[];autosize=1;strokeColor=#666666;fillColor=#f5f5f5;fontSize=14;fontStyle=2;fontColor=#333333;" vertex="1" parent="1">
          <mxGeometry x="-235" y="740" width="210" height="30" as="geometry" />
        </mxCell>
        <mxCell id="k9o-K-0dyuXf7gm_a3Xe-55" value="No Supervised Professor" style="text;html=1;align=center;verticalAlign=middle;resizable=0;points=[];autosize=1;strokeColor=#666666;fillColor=#f5f5f5;fontSize=14;fontStyle=2;fontColor=#333333;" vertex="1" parent="1">
          <mxGeometry x="-215" y="920" width="180" height="30" as="geometry" />
        </mxCell>
        <mxCell id="k9o-K-0dyuXf7gm_a3Xe-56" value="" style="html=1;points=[[0,0,0,0,5],[0,1,0,0,-5],[1,0,0,0,5],[1,1,0,0,-5]];perimeter=orthogonalPerimeter;outlineConnect=0;targetShapes=umlLifeline;portConstraint=eastwest;newEdgeStyle={&quot;curved&quot;:0,&quot;rounded&quot;:0};strokeColor=#000000;fillColor=#dae8fc;" vertex="1" parent="1">
          <mxGeometry x="-35" y="620" width="10" height="90" as="geometry" />
        </mxCell>
        <mxCell id="k9o-K-0dyuXf7gm_a3Xe-57" value="" style="endArrow=classic;html=1;rounded=0;" edge="1" parent="1">
          <mxGeometry width="50" height="50" relative="1" as="geometry">
            <mxPoint x="-814.5" y="645" as="sourcePoint" />
            <mxPoint x="-35" y="645" as="targetPoint" />
          </mxGeometry>
        </mxCell>
        <mxCell id="k9o-K-0dyuXf7gm_a3Xe-58" value="Select &quot;Pass or Fail&quot; &amp;amp;&amp;nbsp;&lt;div&gt;click &quot;Complete&quot;&lt;/div&gt;" style="text;html=1;align=center;verticalAlign=middle;resizable=0;points=[];autosize=1;strokeColor=none;fillColor=none;fontSize=13;fontStyle=2" vertex="1" parent="1">
          <mxGeometry x="-814.5" y="600" width="160" height="40" as="geometry" />
        </mxCell>
        <mxCell id="k9o-K-0dyuXf7gm_a3Xe-59" value="show error&amp;nbsp;&lt;div&gt;message&lt;/div&gt;" style="html=1;align=left;spacingLeft=2;endArrow=block;rounded=0;edgeStyle=orthogonalEdgeStyle;curved=0;rounded=0;fontSize=13;fontStyle=2" edge="1" parent="1">
          <mxGeometry relative="1" as="geometry">
            <mxPoint x="-25" y="670" as="sourcePoint" />
            <Array as="points">
              <mxPoint x="5" y="700" />
            </Array>
            <mxPoint x="-20" y="700.0588235294122" as="targetPoint" />
          </mxGeometry>
        </mxCell>
        <mxCell id="k9o-K-0dyuXf7gm_a3Xe-60" value="" style="html=1;points=[[0,0,0,0,5],[0,1,0,0,-5],[1,0,0,0,5],[1,1,0,0,-5]];perimeter=orthogonalPerimeter;outlineConnect=0;targetShapes=umlLifeline;portConstraint=eastwest;newEdgeStyle={&quot;curved&quot;:0,&quot;rounded&quot;:0};strokeColor=#000000;fillColor=#dae8fc;" vertex="1" parent="1">
          <mxGeometry x="-35" y="800" width="10" height="90" as="geometry" />
        </mxCell>
        <mxCell id="k9o-K-0dyuXf7gm_a3Xe-61" value="" style="endArrow=classic;html=1;rounded=0;" edge="1" parent="1">
          <mxGeometry width="50" height="50" relative="1" as="geometry">
            <mxPoint x="-814.5" y="825" as="sourcePoint" />
            <mxPoint x="-35" y="825" as="targetPoint" />
          </mxGeometry>
        </mxCell>
        <mxCell id="k9o-K-0dyuXf7gm_a3Xe-62" value="Select &quot;Pass or Fail&quot; &amp;amp;&amp;nbsp;&lt;div&gt;click &quot;Complete&quot;&lt;/div&gt;" style="text;html=1;align=center;verticalAlign=middle;resizable=0;points=[];autosize=1;strokeColor=none;fillColor=none;fontSize=13;fontStyle=2" vertex="1" parent="1">
          <mxGeometry x="-814.5" y="780" width="160" height="40" as="geometry" />
        </mxCell>
        <mxCell id="k9o-K-0dyuXf7gm_a3Xe-63" value="show error&amp;nbsp;&lt;div&gt;message&lt;/div&gt;" style="html=1;align=left;spacingLeft=2;endArrow=block;rounded=0;edgeStyle=orthogonalEdgeStyle;curved=0;rounded=0;fontSize=13;fontStyle=2" edge="1" parent="1">
          <mxGeometry relative="1" as="geometry">
            <mxPoint x="-25" y="850" as="sourcePoint" />
            <Array as="points">
              <mxPoint x="5" y="880" />
            </Array>
            <mxPoint x="-20" y="880.0588235294122" as="targetPoint" />
          </mxGeometry>
        </mxCell>
        <mxCell id="k9o-K-0dyuXf7gm_a3Xe-64" value="" style="html=1;points=[[0,0,0,0,5],[0,1,0,0,-5],[1,0,0,0,5],[1,1,0,0,-5]];perimeter=orthogonalPerimeter;outlineConnect=0;targetShapes=umlLifeline;portConstraint=eastwest;newEdgeStyle={&quot;curved&quot;:0,&quot;rounded&quot;:0};strokeColor=#000000;fillColor=#dae8fc;" vertex="1" parent="1">
          <mxGeometry x="-35.5" y="960" width="10" height="90" as="geometry" />
        </mxCell>
        <mxCell id="k9o-K-0dyuXf7gm_a3Xe-65" value="" style="endArrow=classic;html=1;rounded=0;" edge="1" parent="1">
          <mxGeometry width="50" height="50" relative="1" as="geometry">
            <mxPoint x="-815" y="985" as="sourcePoint" />
            <mxPoint x="-35.5" y="985" as="targetPoint" />
          </mxGeometry>
        </mxCell>
        <mxCell id="k9o-K-0dyuXf7gm_a3Xe-66" value="Select &quot;Pass or Fail&quot; &amp;amp;&amp;nbsp;&lt;div&gt;click &quot;Complete&quot;&lt;/div&gt;" style="text;html=1;align=center;verticalAlign=middle;resizable=0;points=[];autosize=1;strokeColor=none;fillColor=none;fontSize=13;fontStyle=2" vertex="1" parent="1">
          <mxGeometry x="-815" y="940" width="160" height="40" as="geometry" />
        </mxCell>
        <mxCell id="k9o-K-0dyuXf7gm_a3Xe-67" value="show error&amp;nbsp;&lt;div&gt;message&lt;/div&gt;" style="html=1;align=left;spacingLeft=2;endArrow=block;rounded=0;edgeStyle=orthogonalEdgeStyle;curved=0;rounded=0;fontSize=13;fontStyle=2" edge="1" parent="1">
          <mxGeometry relative="1" as="geometry">
            <mxPoint x="-25.5" y="1010" as="sourcePoint" />
            <Array as="points">
              <mxPoint x="4.5" y="1040" />
            </Array>
            <mxPoint x="-20.5" y="1040.0588235294122" as="targetPoint" />
          </mxGeometry>
        </mxCell>
        <mxCell id="k9o-K-0dyuXf7gm_a3Xe-70" value="completeTraineeship()" style="text;html=1;align=center;verticalAlign=middle;resizable=0;points=[];autosize=1;strokeColor=none;fillColor=none;fontSize=13;fontStyle=2" vertex="1" parent="1">
          <mxGeometry x="-425" y="1130" width="150" height="30" as="geometry" />
        </mxCell>
        <mxCell id="k9o-K-0dyuXf7gm_a3Xe-72" value="" style="endArrow=classic;html=1;rounded=0;" edge="1" parent="1">
          <mxGeometry width="50" height="50" relative="1" as="geometry">
            <mxPoint x="-440.5" y="1157" as="sourcePoint" />
            <mxPoint x="-227.5" y="1157" as="targetPoint" />
          </mxGeometry>
        </mxCell>
        <mxCell id="k9o-K-0dyuXf7gm_a3Xe-73" value="findById()" style="text;html=1;align=center;verticalAlign=middle;resizable=0;points=[];autosize=1;strokeColor=none;fillColor=none;fontSize=13;fontStyle=2" vertex="1" parent="1">
          <mxGeometry x="-183.83" y="1150" width="80" height="30" as="geometry" />
        </mxCell>
        <mxCell id="k9o-K-0dyuXf7gm_a3Xe-74" value="" style="endArrow=classic;html=1;rounded=0;" edge="1" parent="1">
          <mxGeometry width="50" height="50" relative="1" as="geometry">
            <mxPoint x="-224.99666666666653" y="1177" as="sourcePoint" />
            <mxPoint x="296.17" y="1177" as="targetPoint" />
          </mxGeometry>
        </mxCell>
        <mxCell id="k9o-K-0dyuXf7gm_a3Xe-75" value="" style="html=1;points=[[0,0,0,0,5],[0,1,0,0,-5],[1,0,0,0,5],[1,1,0,0,-5]];perimeter=orthogonalPerimeter;outlineConnect=0;targetShapes=umlLifeline;portConstraint=eastwest;newEdgeStyle={&quot;curved&quot;:0,&quot;rounded&quot;:0};strokeColor=#000000;fillColor=#dae8fc;" vertex="1" parent="1">
          <mxGeometry x="481.17" y="1160" width="10" height="90" as="geometry" />
        </mxCell>
        <mxCell id="k9o-K-0dyuXf7gm_a3Xe-76" value="find Position" style="text;html=1;align=center;verticalAlign=middle;resizable=0;points=[];autosize=1;strokeColor=none;fillColor=none;fontSize=13;fontStyle=2" vertex="1" parent="1">
          <mxGeometry x="346.17" y="1178" width="90" height="30" as="geometry" />
        </mxCell>
        <mxCell id="k9o-K-0dyuXf7gm_a3Xe-77" value="return Position" style="html=1;verticalAlign=bottom;endArrow=open;dashed=1;endSize=8;curved=0;rounded=0;fontSize=13;fontStyle=2;exitX=0;exitY=1;exitDx=0;exitDy=-5;exitPerimeter=0;" edge="1" parent="1" source="k9o-K-0dyuXf7gm_a3Xe-75">
          <mxGeometry x="-0.0026" relative="1" as="geometry">
            <mxPoint x="474.17" y="1220" as="sourcePoint" />
            <mxPoint x="301.17" y="1245" as="targetPoint" />
            <mxPoint as="offset" />
          </mxGeometry>
        </mxCell>
        <mxCell id="k9o-K-0dyuXf7gm_a3Xe-78" value="return Position" style="html=1;verticalAlign=bottom;endArrow=open;dashed=1;endSize=8;curved=0;rounded=0;fontSize=13;fontStyle=2;" edge="1" parent="1">
          <mxGeometry x="-0.0026" relative="1" as="geometry">
            <mxPoint x="295.66999999999956" y="1270" as="sourcePoint" />
            <mxPoint x="-218.83" y="1270" as="targetPoint" />
            <mxPoint as="offset" />
          </mxGeometry>
        </mxCell>
        <mxCell id="k9o-K-0dyuXf7gm_a3Xe-79" value="" style="endArrow=classic;html=1;rounded=0;" edge="1" parent="1">
          <mxGeometry width="50" height="50" relative="1" as="geometry">
            <mxPoint x="296.17" y="1200" as="sourcePoint" />
            <mxPoint x="481.17" y="1200" as="targetPoint" />
          </mxGeometry>
        </mxCell>
        <mxCell id="k9o-K-0dyuXf7gm_a3Xe-81" value="setPassFailGrade()" style="text;html=1;align=center;verticalAlign=middle;resizable=0;points=[];autosize=1;strokeColor=none;fillColor=none;fontSize=13;fontStyle=2" vertex="1" parent="1">
          <mxGeometry x="-205" y="1308" width="140" height="30" as="geometry" />
        </mxCell>
        <mxCell id="k9o-K-0dyuXf7gm_a3Xe-83" value="" style="endArrow=classic;html=1;rounded=0;" edge="1" parent="1" target="k9o-K-0dyuXf7gm_a3Xe-40">
          <mxGeometry width="50" height="50" relative="1" as="geometry">
            <mxPoint x="-217.5" y="1334" as="sourcePoint" />
            <mxPoint x="489.5" y="1334" as="targetPoint" />
          </mxGeometry>
        </mxCell>
        <mxCell id="k9o-K-0dyuXf7gm_a3Xe-85" value="save()" style="text;html=1;align=center;verticalAlign=middle;resizable=0;points=[];autosize=1;strokeColor=none;fillColor=none;fontSize=13;fontStyle=2" vertex="1" parent="1">
          <mxGeometry x="580" y="1350" width="60" height="30" as="geometry" />
        </mxCell>
        <mxCell id="k9o-K-0dyuXf7gm_a3Xe-86" value="" style="endArrow=classic;html=1;rounded=0;" edge="1" parent="1">
          <mxGeometry width="50" height="50" relative="1" as="geometry">
            <mxPoint x="655" y="1378" as="sourcePoint" />
            <mxPoint x="299.25" y="1378" as="targetPoint" />
          </mxGeometry>
        </mxCell>
        <mxCell id="k9o-K-0dyuXf7gm_a3Xe-89" value="save Evaluation" style="text;html=1;align=center;verticalAlign=middle;resizable=0;points=[];autosize=1;strokeColor=none;fillColor=none;fontSize=13;fontStyle=2" vertex="1" parent="1">
          <mxGeometry x="310" y="1400" width="120" height="30" as="geometry" />
        </mxCell>
        <mxCell id="k9o-K-0dyuXf7gm_a3Xe-90" value="" style="endArrow=classic;html=1;rounded=0;" edge="1" parent="1">
          <mxGeometry width="50" height="50" relative="1" as="geometry">
            <mxPoint x="305" y="1430" as="sourcePoint" />
            <mxPoint x="489.5" y="1430" as="targetPoint" />
          </mxGeometry>
        </mxCell>
        <mxCell id="k9o-K-0dyuXf7gm_a3Xe-92" value="sendCompletionEmail()" style="html=1;align=left;spacingLeft=2;endArrow=block;rounded=0;edgeStyle=orthogonalEdgeStyle;curved=0;rounded=0;fontSize=13;fontStyle=2" edge="1" parent="1">
          <mxGeometry relative="1" as="geometry">
            <mxPoint x="-440" y="1450" as="sourcePoint" />
            <Array as="points">
              <mxPoint x="-410" y="1480" />
            </Array>
            <mxPoint x="-435" y="1480.0588235294122" as="targetPoint" />
          </mxGeometry>
        </mxCell>
      </root>
    </mxGraphModel>
  </diagram>
</mxfile>
